<?xml version="1.0" encoding="UTF-8" standalone="no"?>
<svg
   xmlns:dc="http://purl.org/dc/elements/1.1/"
   xmlns:cc="http://creativecommons.org/ns#"
   xmlns:rdf="http://www.w3.org/1999/02/22-rdf-syntax-ns#"
   xmlns:svg="http://www.w3.org/2000/svg"
   xmlns="http://www.w3.org/2000/svg"
   xmlns:xlink="http://www.w3.org/1999/xlink"
   xmlns:sodipodi="http://sodipodi.sourceforge.net/DTD/sodipodi-0.dtd"
   xmlns:inkscape="http://www.inkscape.org/namespaces/inkscape"
   version="1.1"
   id="Layer_1"
   viewBox="0 0 663.029 663.029"
   xml:space="preserve"
   sodipodi:docname="back.svg"
   inkscape:version="1.0.2-2 (e86c870879, 2021-01-15)"
   width="663.02899"
   height="663.02899"><metadata
   id="metadata63"><rdf:RDF><cc:Work
       rdf:about=""><dc:format>image/svg+xml</dc:format><dc:type
         rdf:resource="http://purl.org/dc/dcmitype/StillImage" /><dc:title /></cc:Work></rdf:RDF></metadata><defs
   id="defs61">
	
	
	
	
	
	
	
	

	
	
	

	
	
	
	
	

	
	
	
	
	
<linearGradient
   inkscape:collect="always"
   xlink:href="#linearGradient979"
   id="linearGradient1011"
   x1="288.371"
   y1="255.85156"
   x2="310.68164"
   y2="255.85156"
   gradientUnits="userSpaceOnUse"
   gradientTransform="matrix(0.99999962,0,0,1.2957298,-89.672974,0)" /><linearGradient
   inkscape:collect="always"
   id="linearGradient979"><stop
     style="stop-color:#aa6100;stop-opacity:0;"
     offset="0"
     id="stop977" /><stop
     style="stop-color:#aa6100;stop-opacity:0.2"
     offset="1"
     id="stop975" /></linearGradient><linearGradient
   inkscape:collect="always"
   xlink:href="#linearGradient927"
   id="linearGradient937"
   x1="200.17773"
   y1="255.85156"
   x2="222.55859"
   y2="255.85156"
   gradientUnits="userSpaceOnUse"
   gradientTransform="matrix(0.99999962,0,0,1.2957298,-89.672974,0)" /><linearGradient
   inkscape:collect="always"
   id="linearGradient927"><stop
     style="stop-color:#ffffff;stop-opacity:0.5"
     offset="0"
     id="stop923" /><stop
     style="stop-color:#ffffff;stop-opacity:0;"
     offset="1"
     id="stop925" /></linearGradient><linearGradient
   inkscape:collect="always"
   xlink:href="#linearGradient979"
   id="linearGradient981"
   x1="151.94839"
   y1="255.8515"
   x2="174.25781"
   y2="255.8515"
   gradientUnits="userSpaceOnUse"
   gradientTransform="matrix(0.99999962,0,0,1.2957298,-63.752974,0)" /><linearGradient
   inkscape:collect="always"
   xlink:href="#linearGradient927"
   id="linearGradient929"
   x1="63.753906"
   y1="255.85156"
   x2="86.033203"
   y2="255.85156"
   gradientUnits="userSpaceOnUse"
   gradientTransform="matrix(0.99999962,0,0,1.2957298,-63.752974,0)" /><linearGradient
   inkscape:collect="always"
   xlink:href="#linearGradient979"
   id="linearGradient1011-1"
   x1="288.371"
   y1="255.85156"
   x2="310.68164"
   y2="255.85156"
   gradientUnits="userSpaceOnUse"
   gradientTransform="matrix(0.99999962,0,0,1.2957298,131.33557,0)" /><linearGradient
   inkscape:collect="always"
   xlink:href="#linearGradient927"
   id="linearGradient937-6"
   x1="200.17773"
   y1="255.85156"
   x2="222.55859"
   y2="255.85156"
   gradientUnits="userSpaceOnUse"
   gradientTransform="matrix(0.99999962,0,0,1.2957298,131.33557,0)" /><linearGradient
   inkscape:collect="always"
   xlink:href="#linearGradient979"
   id="linearGradient1147"
   gradientUnits="userSpaceOnUse"
   x1="151.94839"
   y1="255.8515"
   x2="174.25781"
   y2="255.8515"
   gradientTransform="matrix(0.99999962,0,0,1.2957298,157.25557,0)" /><linearGradient
   inkscape:collect="always"
   xlink:href="#linearGradient927"
   id="linearGradient1149"
   gradientUnits="userSpaceOnUse"
   x1="63.753906"
   y1="255.85156"
   x2="86.033203"
   y2="255.85156"
   gradientTransform="matrix(0.99999962,0,0,1.2957298,157.25557,0)" /><linearGradient
   inkscape:collect="always"
   xlink:href="#linearGradient979"
   id="linearGradient1011-17"
   x1="288.371"
   y1="255.85156"
   x2="310.68164"
   y2="255.85156"
   gradientUnits="userSpaceOnUse"
   gradientTransform="matrix(0.99999962,0,0,1.2957298,352.34412,0)" /><linearGradient
   inkscape:collect="always"
   xlink:href="#linearGradient927"
   id="linearGradient937-1"
   x1="200.17773"
   y1="255.85156"
   x2="222.55859"
   y2="255.85156"
   gradientUnits="userSpaceOnUse"
   gradientTransform="matrix(0.99999962,0,0,1.2957298,352.34412,0)" /><linearGradient
   inkscape:collect="always"
   xlink:href="#linearGradient979"
   id="linearGradient1232"
   gradientUnits="userSpaceOnUse"
   x1="151.94839"
   y1="255.8515"
   x2="174.25781"
   y2="255.8515"
   gradientTransform="matrix(0.99999962,0,0,1.2957298,378.26412,0)" /><linearGradient
   inkscape:collect="always"
   xlink:href="#linearGradient927"
   id="linearGradient1234"
   gradientUnits="userSpaceOnUse"
   x1="63.753906"
   y1="255.85156"
   x2="86.033203"
   y2="255.85156"
   gradientTransform="matrix(0.99999962,0,0,1.2957298,378.26412,0)" /></defs><sodipodi:namedview
   pagecolor="#ffffff"
   bordercolor="#666666"
   borderopacity="1"
   objecttolerance="10"
   gridtolerance="10"
   guidetolerance="10"
   inkscape:pageopacity="0"
   inkscape:pageshadow="2"
   inkscape:window-width="1920"
   inkscape:window-height="1017"
   id="namedview59"
   showgrid="false"
   inkscape:zoom="0.61754558"
   inkscape:cx="488.23843"
   inkscape:cy="372.67202"
   inkscape:window-x="3832"
   inkscape:window-y="-8"
   inkscape:window-maximized="1"
   inkscape:current-layer="Layer_1"
   inkscape:document-rotation="0"
   inkscape:snap-smooth-nodes="true"
   showguides="false"
   fit-margin-top="0"
   fit-margin-left="0"
   fit-margin-right="0"
   fit-margin-bottom="0"
   inkscape:snap-page="true"
   inkscape:lockguides="true" />







<path
   id="rect16"
   style="fill:#ffdd09;fill-opacity:1;stroke-width:1.1383"
   d="M 110.50395,0 H 221.00791 V 663.02883 H 110.50395 Z" /><path
   style="fill:#fd9808;fill-opacity:0.2;stroke-width:1.1383"
   d="m 221.01191,511.31442 c -3.013,0 -5.885,-2.26753 -7.17,-6.07439 -23.83199,-70.52009 -35.43899,-177.28045 -34.49499,-317.31645 0.653,-97.042388 7.455,-177.214373 8.402,-187.92358 h 15.69899 c 0,0.40038051 -0.019,0.80335248 -0.056,1.2102116 -0.293,3.1615807 -27.37098,303.2655584 17.611,472.0071584 z"
   id="path18" /><path
   style="fill:#fd9808;fill-opacity:0.2;stroke-width:1.1383"
   d="m 184.94592,0 c 0,0.94329129 -0.103,1.9021313 -0.318,2.8519013 v 0 c -0.118,0.5234748 -11.90399,53.2791137 -18.60599,136.0801387 -6.175,76.28998 -9.176,194.44628 11.59599,324.10478 26.15199,163.25547 27.56499,198.143 27.61299,199.54887 0.005,0.14901 0.007,0.29542 0.007,0.44184 l -15.66099,-10e-4 c -0.242,-4.57651 -2.861,-43.44193 -27.28099,-195.87029 C 141.07994,334.71422 144.17294,214.11676 150.50393,136.26931 156.56293,61.780397 166.40893,12.186339 168.99293,0 Z"
   id="path20" /><path
   style="fill:#fd9808;fill-opacity:0.2;stroke-width:1.1383"
   d="M 110.50395,127.34821 C 140.28394,85.081506 140.64694,0.8914621 140.64694,0 h 15.64599 c 0,4.2163048 -0.462,103.8048 -40.65198,149.15534 -1.482,1.6715 -3.313,2.49169 -5.135,2.49169 z"
   id="path22" /><path
   style="fill:#fd9808;fill-opacity:0.2;stroke-width:1.1383"
   d="m 110.50395,607.41092 c 7.844,-16.40394 21.78599,-57.2583 21.78599,-140.41824 0,-115.28885 -21.51699,-141.87723 -21.78699,-142.20764 v -14.87109 -11.10959 c 1.316,1.5186 36.75999,42.19933 37.43299,168.18703 0.667,124.81635 -26.41899,150.78926 -37.43299,168.15981 z"
   id="path24" /><path
   style="fill:#fd9808;fill-opacity:0.2;stroke-width:1.1383"
   d="m 141.82894,663.02883 c 0,-9.78795 3.818,-15.77811 5.897,-15.77811 2.07899,0 5.89699,5.99016 5.89699,15.77811 h 15.646 c 0,-20.21598 -9.463,-36.05109 -21.54299,-36.05109 -12.08,0 -21.543,15.83641 -21.543,36.05109 z"
   id="path26" /><path
   id="path34"
   style="fill:url(#linearGradient1011);fill-opacity:1;stroke-width:1.1383;enable-background:new"
   d="m 198.69792,0 v 663.02898 h 22.31063 V 0 Z"
   sodipodi:nodetypes="ccccc" /><path
   id="path52"
   style="fill:url(#linearGradient937);fill-opacity:1;stroke-width:1.1383;enable-background:new"
   d="m 110.50468,0 v 663.02898 h 22.3789 L 132.88553,0 Z" /><path
   id="rect2"
   style="fill:#ffdd09;fill-opacity:1;stroke-width:1.1383"
   d="M 1.2591141e-7,0 H 110.50395 V 663.02881 H 1.2591141e-7 Z" /><path
   id="path4"
   style="fill:#fd9808;fill-opacity:0.2;stroke-width:1.1383"
   d="m 9.0777352e-4,151.72186 v 38.06966 C 44.990895,358.53052 17.909136,658.65772 17.616136,661.8193 c -0.037,0.40686 -0.05469,0.81061 -0.05469,1.20968 h 15.699213 c 0.946,-10.71049 7.747387,-90.88015 8.400387,-187.92384 C 42.604046,335.06914 30.99891,228.30939 7.1669191,157.788 5.8814865,153.98409 3.0117296,151.72336 9.0577352e-4,151.72186 Z" /><path
   style="fill:#fd9808;fill-opacity:0.2;stroke-width:1.1383"
   d="m 36.061988,663.02883 c 0,-0.942 0.103,-1.90214 0.318,-2.85191 v 0 c 0.119,-0.52347 11.903995,-53.27911 18.604993,-136.08013 C 61.159979,447.80681 64.160977,329.65051 43.388985,199.99201 17.236995,36.736531 15.816996,1.4058668 15.769996,0 H 31.42899 c 0.242,4.5726305 2.859999,43.431567 27.280989,195.87159 21.216992,132.44172 18.122994,253.03918 11.792996,330.88663 -6.057998,74.48891 -15.903994,124.08297 -18.487993,136.26931 H 36.061988 Z"
   id="path6" /><path
   style="fill:#fd9808;fill-opacity:0.2;stroke-width:1.1383"
   d="M 110.50396,535.68061 C 80.723971,577.94862 80.361971,662.13736 80.361971,663.02883 H 64.715977 c 0,-4.21631 0.462,-103.80351 40.651983,-149.15664 1.483,-1.67279 3.315,-2.49299 5.138,-2.49169 z"
   id="path8" /><path
   id="path10"
   style="fill:#fd9808;fill-opacity:0.2;stroke-width:1.1383"
   d="m 110.50477,24.608744 c -8.385,9.635047 -37.433576,45.439604 -37.433576,171.428596 0,125.98899 29.902576,163.41294 37.433576,172.1954 v -31.80865 c -7.87657,-16.47163 -21.787102,-57.3173 -21.787102,-140.38675 0,-83.15864 13.943102,-124.013187 21.787102,-140.417126 z" /><path
   style="fill:#fd9808;fill-opacity:0.2;stroke-width:1.1383"
   d="m 79.179972,0.00129573 c 0,9.78794287 -3.817999,15.77810227 -5.896998,15.77810227 -2.078999,0 -5.896998,-5.9901594 -5.896998,-15.77810227 H 51.739982 c 0,20.21597627 9.462997,36.05109027 21.542992,36.05109027 12.079995,0 21.542992,-15.83641 21.542992,-36.05109027 z"
   id="path12" /><path
   id="path36"
   style="fill:url(#linearGradient981);fill-opacity:1;stroke-width:1.1383;enable-background:new"
   d="m 88.195368,0 6e-4,663.02883 H 110.50477 L 110.50395,0 Z"
   sodipodi:nodetypes="ccccc" /><path
   id="path50"
   style="fill:url(#linearGradient929);fill-opacity:1;stroke-width:1.1383;enable-background:new"
   d="M 9.0777352e-4,0 V 663.02898 H 22.280196 V 0 Z"
   sodipodi:nodetypes="ccccc" /><path
   id="rect16-4"
   style="fill:#ffdd09;fill-opacity:1;stroke-width:1.1383"
   d="M 331.51249,0 H 442.01645 V 663.02883 H 331.51249 Z" /><path
   style="fill:#fd9808;fill-opacity:0.2;stroke-width:1.1383"
   d="m 442.02045,511.31442 c -3.013,0 -5.885,-2.26753 -7.17,-6.07439 C 411.01846,434.71994 399.41147,327.95958 400.35547,187.92358 401.00847,90.881192 407.81046,10.709207 408.75746,0 h 15.699 c 0,0.40038051 -0.019,0.80335248 -0.056,1.2102116 -0.293,3.1615807 -27.37099,303.2655584 17.61099,472.0071584 z"
   id="path18-1" /><path
   style="fill:#fd9808;fill-opacity:0.2;stroke-width:1.1383"
   d="m 405.95447,0 c 0,0.94329129 -0.103,1.9021313 -0.318,2.8519013 v 0 c -0.118,0.5234748 -11.904,53.2791137 -18.606,136.0801387 -6.17499,76.28998 -9.17599,194.44628 11.596,324.10478 26.15199,163.25547 27.56499,198.143 27.61299,199.54887 0.005,0.14901 0.007,0.29542 0.007,0.44184 l -15.661,-10e-4 c -0.242,-4.57651 -2.861,-43.44193 -27.28099,-195.87029 C 362.08848,334.71422 365.18148,214.11676 371.51248,136.26931 377.57148,61.780397 387.41747,12.186339 390.00147,0 Z"
   id="path20-2" /><path
   style="fill:#fd9808;fill-opacity:0.2;stroke-width:1.1383"
   d="M 331.51249,127.34821 C 361.29248,85.081506 361.65548,0.8914621 361.65548,0 h 15.646 c 0,4.2163048 -0.462,103.8048 -40.65199,149.15534 -1.482,1.6715 -3.313,2.49169 -5.135,2.49169 z"
   id="path22-3" /><path
   style="fill:#fd9808;fill-opacity:0.2;stroke-width:1.1383"
   d="m 331.51249,607.41092 c 7.844,-16.40394 21.786,-57.2583 21.786,-140.41824 0,-115.28885 -21.517,-141.87723 -21.787,-142.20764 v -14.87109 -11.10959 c 1.316,1.5186 36.75999,42.19933 37.43299,168.18703 0.667,124.81635 -26.41899,150.78926 -37.43299,168.15981 z"
   id="path24-9" /><path
   style="fill:#fd9808;fill-opacity:0.2;stroke-width:1.1383"
   d="m 362.83748,663.02883 c 0,-9.78795 3.818,-15.77811 5.897,-15.77811 2.079,0 5.897,5.99016 5.897,15.77811 h 15.64599 c 0,-20.21598 -9.46299,-36.05109 -21.54299,-36.05109 -12.08,0 -21.54299,15.83641 -21.54299,36.05109 z"
   id="path26-3" /><path
   id="path34-8"
   style="fill:url(#linearGradient1011-1);fill-opacity:1;stroke-width:1.1383;enable-background:new"
   d="m 419.70646,0 v 663.02898 h 22.31063 V 0 Z"
   sodipodi:nodetypes="ccccc" /><path
   id="path52-1"
   style="fill:url(#linearGradient937-6);fill-opacity:1;stroke-width:1.1383;enable-background:new"
   d="m 331.51322,0 v 663.02898 h 22.37891 L 353.89408,0 Z" /><path
   id="rect2-2"
   style="fill:#ffdd09;fill-opacity:1;stroke-width:1.1383"
   d="M 221.00854,0 H 331.5125 V 663.02881 H 221.00854 Z" /><path
   id="path4-1"
   style="fill:#fd9808;fill-opacity:0.2;stroke-width:1.1383"
   d="m 221.00945,151.72186 v 38.06966 c 44.98999,168.739 17.90823,468.8662 17.61523,472.02778 -0.037,0.40686 -0.0547,0.81061 -0.0547,1.20968 h 15.69921 c 0.946,-10.71049 7.74739,-90.88015 8.40039,-187.92384 0.943,-140.036 -10.66214,-246.79575 -34.49413,-317.31714 -1.28543,-3.80391 -4.15519,-6.06464 -7.16601,-6.06614 z" /><path
   style="fill:#fd9808;fill-opacity:0.2;stroke-width:1.1383"
   d="m 257.07053,663.02883 c 0,-0.942 0.103,-1.90214 0.318,-2.85191 v 0 c 0.119,-0.52347 11.904,-53.27911 18.60499,-136.08013 6.175,-76.28998 9.176,-194.44628 -11.59599,-324.10478 C 238.24554,36.736531 236.82554,1.4058668 236.77854,0 h 15.65899 c 0.242,4.5726305 2.86,43.431567 27.28099,195.87159 21.217,132.44172 18.123,253.03918 11.793,330.88663 -6.058,74.48891 -15.90399,124.08297 -18.48799,136.26931 h -15.953 z"
   id="path6-5" /><path
   style="fill:#fd9808;fill-opacity:0.2;stroke-width:1.1383"
   d="m 331.5125,535.68061 c -29.77998,42.26801 -30.14198,126.45675 -30.14198,127.34822 h -15.646 c 0,-4.21631 0.462,-103.80351 40.65199,-149.15664 1.483,-1.67279 3.31499,-2.49299 5.13799,-2.49169 z"
   id="path8-6" /><path
   id="path10-5"
   style="fill:#fd9808;fill-opacity:0.2;stroke-width:1.1383"
   d="m 331.51331,24.608744 c -8.38499,9.635047 -37.43357,45.439604 -37.43357,171.428596 0,125.98899 29.90258,163.41294 37.43357,172.1954 v -31.80865 c -7.87656,-16.47163 -21.7871,-57.3173 -21.7871,-140.38675 0,-83.15864 13.94311,-124.013187 21.7871,-140.417126 z" /><path
   style="fill:#fd9808;fill-opacity:0.2;stroke-width:1.1383"
   d="m 300.18852,0.00129573 c 0,9.78794287 -3.818,15.77810227 -5.897,15.77810227 -2.079,0 -5.897,-5.9901594 -5.897,-15.77810227 h -15.64599 c 0,20.21597627 9.46299,36.05109027 21.54299,36.05109027 12.07999,0 21.54299,-15.83641 21.54299,-36.05109027 z"
   id="path12-8" /><path
   id="path36-8"
   style="fill:url(#linearGradient1147);fill-opacity:1;stroke-width:1.1383;enable-background:new"
   d="m 309.20391,0 6e-4,663.02883 h 22.3088 L 331.51249,0 Z"
   sodipodi:nodetypes="ccccc" /><path
   id="path50-1"
   style="fill:url(#linearGradient1149);fill-opacity:1;stroke-width:1.1383;enable-background:new"
   d="m 221.00945,0 v 663.02898 h 22.27929 V 0 Z"
   sodipodi:nodetypes="ccccc" /><path
   id="rect16-2"
   style="fill:#ffdd09;fill-opacity:1;stroke-width:1.1383"
   d="M 552.52104,0 H 663.025 V 663.02883 H 552.52104 Z" /><path
   style="fill:#fd9808;fill-opacity:0.2;stroke-width:1.1383"
   d="m 663.029,511.31442 c -3.013,0 -5.885,-2.26753 -7.17,-6.07439 C 632.02701,434.71994 620.42002,327.95958 621.36402,187.92358 622.01702,90.881192 628.81901,10.709207 629.76601,0 h 15.699 c 0,0.40038051 -0.019,0.80335248 -0.056,1.2102116 C 645.11601,4.3717923 618.03802,304.47577 663.02,473.21737 Z"
   id="path18-0" /><path
   style="fill:#fd9808;fill-opacity:0.2;stroke-width:1.1383"
   d="m 626.96302,0 c 0,0.94329129 -0.103,1.9021313 -0.318,2.8519013 v 0 c -0.118,0.5234748 -11.904,53.2791137 -18.606,136.0801387 -6.17499,76.28998 -9.17599,194.44628 11.596,324.10478 26.15199,163.25547 27.56499,198.143 27.61299,199.54887 0.005,0.14901 0.007,0.29542 0.007,0.44184 l -15.661,-10e-4 c -0.242,-4.57651 -2.861,-43.44193 -27.28099,-195.87029 C 583.09703,334.71422 586.19003,214.11676 592.52103,136.26931 598.58003,61.780397 608.42602,12.186339 611.01002,0 Z"
   id="path20-6" /><path
   style="fill:#fd9808;fill-opacity:0.2;stroke-width:1.1383"
   d="M 552.52104,127.34821 C 582.30103,85.081506 582.66403,0.8914621 582.66403,0 h 15.646 c 0,4.2163048 -0.462,103.8048 -40.65199,149.15534 -1.482,1.6715 -3.313,2.49169 -5.135,2.49169 z"
   id="path22-7" /><path
   style="fill:#fd9808;fill-opacity:0.2;stroke-width:1.1383"
   d="m 552.52104,607.41092 c 7.844,-16.40394 21.786,-57.2583 21.786,-140.41824 0,-115.28885 -21.517,-141.87723 -21.787,-142.20764 v -14.87109 -11.10959 c 1.316,1.5186 36.75999,42.19933 37.43299,168.18703 0.667,124.81635 -26.41899,150.78926 -37.43299,168.15981 z"
   id="path24-6" /><path
   style="fill:#fd9808;fill-opacity:0.2;stroke-width:1.1383"
   d="m 583.84603,663.02883 c 0,-9.78795 3.818,-15.77811 5.897,-15.77811 2.079,0 5.897,5.99016 5.897,15.77811 h 15.64599 c 0,-20.21598 -9.46299,-36.05109 -21.54299,-36.05109 -12.08,0 -21.54299,15.83641 -21.54299,36.05109 z"
   id="path26-9" /><path
   id="path34-5"
   style="fill:url(#linearGradient1011-17);fill-opacity:1;stroke-width:1.1383;enable-background:new"
   d="m 640.71501,0 v 663.02898 h 22.31063 V 0 Z"
   sodipodi:nodetypes="ccccc" /><path
   id="path52-0"
   style="fill:url(#linearGradient937-1);fill-opacity:1;stroke-width:1.1383;enable-background:new"
   d="m 552.52177,0 v 663.02898 h 22.37891 L 574.90263,0 Z" /><path
   id="rect2-23"
   style="fill:#ffdd09;fill-opacity:1;stroke-width:1.1383"
   d="M 442.01709,0 H 552.52104 V 663.02881 H 442.01709 Z" /><path
   id="path4-0"
   style="fill:#fd9808;fill-opacity:0.2;stroke-width:1.1383"
   d="m 442.018,151.72186 v 38.06966 c 44.98999,168.739 17.90823,468.8662 17.61523,472.02778 -0.037,0.40686 -0.0547,0.81061 -0.0547,1.20968 h 15.69921 c 0.946,-10.71049 7.74739,-90.88015 8.40039,-187.92384 0.943,-140.036 -10.66214,-246.79575 -34.49413,-317.31714 -1.28543,-3.80391 -4.15519,-6.06464 -7.16601,-6.06614 z" /><path
   style="fill:#fd9808;fill-opacity:0.2;stroke-width:1.1383"
   d="m 478.07908,663.02883 c 0,-0.942 0.103,-1.90214 0.318,-2.85191 v 0 c 0.119,-0.52347 11.904,-53.27911 18.60499,-136.08013 6.175,-76.28998 9.176,-194.44628 -11.59599,-324.10478 C 459.25409,36.736531 457.83409,1.4058668 457.78709,0 h 15.65899 c 0.242,4.5726305 2.86,43.431567 27.28099,195.87159 21.217,132.44172 18.123,253.03918 11.793,330.88663 -6.058,74.48891 -15.90399,124.08297 -18.48799,136.26931 h -15.953 z"
   id="path6-8" /><path
   style="fill:#fd9808;fill-opacity:0.2;stroke-width:1.1383"
   d="m 552.52105,535.68061 c -29.77998,42.26801 -30.14198,126.45675 -30.14198,127.34822 h -15.646 c 0,-4.21631 0.462,-103.80351 40.65199,-149.15664 1.483,-1.67279 3.31499,-2.49299 5.13799,-2.49169 z"
   id="path8-7" /><path
   id="path10-8"
   style="fill:#fd9808;fill-opacity:0.2;stroke-width:1.1383"
   d="m 552.52186,24.608744 c -8.38499,9.635047 -37.43357,45.439604 -37.43357,171.428596 0,125.98899 29.90258,163.41294 37.43357,172.1954 v -31.80865 c -7.87656,-16.47163 -21.7871,-57.3173 -21.7871,-140.38675 0,-83.15864 13.94311,-124.013187 21.7871,-140.417126 z" /><path
   style="fill:#fd9808;fill-opacity:0.2;stroke-width:1.1383"
   d="m 521.19707,0.00129573 c 0,9.78794287 -3.818,15.77810227 -5.897,15.77810227 -2.079,0 -5.897,-5.9901594 -5.897,-15.77810227 h -15.64599 c 0,20.21597627 9.46299,36.05109027 21.54299,36.05109027 12.07999,0 21.54299,-15.83641 21.54299,-36.05109027 z"
   id="path12-3" /><path
   id="path36-9"
   style="fill:url(#linearGradient1232);fill-opacity:1;stroke-width:1.1383;enable-background:new"
   d="m 530.21246,0 6e-4,663.02883 h 22.3088 L 552.52104,0 Z"
   sodipodi:nodetypes="ccccc" /><path
   id="path50-5"
   style="fill:url(#linearGradient1234);fill-opacity:1;stroke-width:1.1383;enable-background:new"
   d="m 442.018,0 v 663.02898 h 22.27929 V 0 Z"
   sodipodi:nodetypes="ccccc" /><path
   id="rect1538"
   style="fill:#000080;fill-opacity:1;stroke-width:8"
   d="M -131.16406 -136.02148 L -131.16406 783.74805 L 795.08398 783.74805 L 795.08398 -136.02148 L -131.16406 -136.02148 z M 331.33594 0 A 331.5145 331.5145 0 0 1 331.51367 0 A 331.5145 331.5145 0 0 1 663.0293 331.51367 A 331.5145 331.5145 0 0 1 331.51367 663.0293 A 331.5145 331.5145 0 0 1 0 331.51367 A 331.5145 331.5145 0 0 1 331.33594 0 z " /></svg>
