<?xml version="1.0" encoding="utf-8"?>
<!DOCTYPE svg PUBLIC "-//W3C//DTD SVG 1.1//EN" "http://www.w3.org/Graphics/SVG/1.1/DTD/svg11.dtd">
<svg xmlns="http://www.w3.org/2000/svg" xml:space="preserve" width="48" height="48">
  <radialGradient id="a" cx="-487.8145" cy="432.8789" r="9.688" gradientTransform="matrix(2.1829 0 0 .7675 1089.1381 -290.8531)" gradientUnits="userSpaceOnUse">
    <stop offset="0"/>
    <stop offset="1" stop-opacity="0"/>
  </radialGradient>
  <path fill="url(#a)" d="M45.436 41.383c0 4.105-9.469 7.436-21.146 7.436-11.679 0-21.147-3.329-21.147-7.436 0-4.107 9.468-7.436 21.147-7.436 11.677 0 21.146 3.328 21.146 7.436z" opacity=".4091"/>
  <path fill="#F57900" stroke="#914900" stroke-linecap="round" stroke-linejoin="round" stroke-width=".9821" d="M45.088 21.404c0 11.482-9.309 20.79-20.79 20.79-11.482 0-20.791-9.308-20.791-20.79h0c0-11.482 9.308-20.79 20.791-20.79 11.481 0 20.79 9.308 20.79 20.79h0z"/>
  <path fill="none" stroke="#FCAF3E" stroke-linecap="round" stroke-linejoin="round" stroke-width=".9821" d="M44.555 21.313c0 11.111-9.006 20.117-20.117 20.117S4.32 32.424 4.32 21.313h0c0-11.111 9.007-20.118 20.118-20.118s20.117 9.007 20.117 20.118h0z"/>
  <path fill="#FFFEFF" fill-opacity=".2139" d="M43.676 20.477c0 10.832-6.052-4.306-18.674.387-12.723 4.729-20.567 10.445-20.567-.387C4.435 9.646 13.225.856 24.056.856s19.62 8.79 19.62 19.621z"/>
  <g stroke="#FFF" transform="translate(-228.4848212 -146.6136718)">
    <path fill="none" stroke-width="2.1625" d="M266.475 167.926c0 7.563-6.137 13.702-13.701 13.702-7.563 0-13.702-6.139-13.702-13.702 0-7.564 6.138-13.703 13.702-13.703 7.564.001 13.701 6.139 13.701 13.703z"/>
    <path fill="#FFF" stroke-width="1.7" d="m252.922 168.326-5.669-5.998"/>
    <path fill="#FFF" stroke-width="1.2" d="m260.952 159.661-8.855 9.057"/>
  </g>
</svg>